<?xml version="1.0" standalone="no"?>
<!DOCTYPE svg PUBLIC "-//W3C//DTD SVG 20010904//EN"
 "http://www.w3.org/TR/2001/REC-SVG-20010904/DTD/svg10.dtd">
<svg version="1.0" xmlns="http://www.w3.org/2000/svg"
 width="1024.000000pt" height="1024.000000pt" viewBox="0 0 1024.000000 1024.000000"
 preserveAspectRatio="xMidYMid meet">
<metadata>
Created by potrace 1.14, written by Peter Selinger 2001-2017
</metadata>
<g transform="translate(0.000000,1024.000000) scale(0.100000,-0.100000)"
fill="#000000" stroke="none">
<path d="M2820 10198 c-147 -37 -263 -181 -365 -453 -32 -85 -81 -259 -100
-354 -7 -31 -31 -164 -39 -206 -10 -58 -35 -241 -41 -295 -3 -30 -8 -71 -10
-90 -4 -33 -6 -57 -21 -245 -10 -132 -12 -198 -20 -475 l-6 -265 -63 -85
c-217 -293 -387 -661 -439 -955 -3 -16 -8 -39 -10 -50 -2 -11 -7 -45 -11 -75
-11 -91 -12 -92 -53 -86 -21 3 -104 19 -187 36 -224 45 -234 46 -275 18 -19
-13 -41 -35 -48 -48 -18 -35 -9 -106 18 -135 28 -30 56 -41 160 -59 47 -9 94
-18 105 -20 11 -2 70 -14 132 -26 l111 -23 1 -118 c0 -65 -3 -120 -7 -123 -4
-2 -34 -7 -66 -11 -33 -3 -62 -8 -65 -9 -3 -2 -42 -7 -86 -11 -44 -4 -82 -8
-85 -10 -3 -2 -30 -6 -60 -9 -30 -3 -68 -8 -83 -11 -68 -13 -107 -65 -102
-135 3 -37 10 -51 38 -75 20 -18 49 -32 66 -33 18 -1 102 7 189 19 86 11 175
22 197 25 22 2 52 6 67 8 26 4 28 1 42 -63 9 -37 24 -96 35 -131 11 -36 17
-67 13 -71 -4 -3 -92 -30 -197 -59 -164 -46 -194 -58 -222 -86 -74 -73 -22
-202 82 -204 27 0 359 89 413 111 30 12 38 7 63 -43 100 -196 366 -468 632
-647 183 -122 423 -249 600 -316 44 -16 47 -20 48 -54 1 -20 2 -70 4 -111 1
-41 5 -172 9 -290 8 -233 12 -324 22 -410 3 -30 7 -131 10 -225 2 -93 6 -233
9 -310 7 -231 17 -626 17 -690 0 -73 -12 -267 -17 -275 -9 -14 -19 -182 -19
-296 2 -330 134 -489 435 -520 104 -11 235 -7 339 10 88 15 183 67 217 118 39
60 44 100 37 328 -3 118 -5 366 -4 550 2 432 -6 413 166 412 103 0 139 -13
177 -64 35 -47 46 -113 41 -262 -15 -532 -16 -551 -45 -711 -28 -154 -12 -260
48 -330 45 -52 145 -106 220 -119 14 -3 50 -10 79 -16 79 -17 236 -19 304 -5
120 25 225 96 269 183 12 24 25 72 28 109 l6 66 19 -37 c52 -102 173 -169 379
-212 61 -13 134 -18 264 -18 170 0 470 9 580 19 28 3 82 7 120 11 39 3 90 8
115 10 25 2 63 6 85 9 22 3 58 8 80 11 130 17 400 65 480 85 266 68 421 160
543 321 l50 66 48 -28 c109 -62 163 -145 168 -260 9 -209 -145 -410 -421 -549
-44 -23 -86 -41 -92 -41 -6 0 -19 -4 -29 -10 -50 -28 -250 -71 -402 -86 -41
-4 -349 -8 -685 -9 -680 -1 -671 0 -767 -70 -106 -77 -133 -198 -72 -325 57
-118 119 -170 244 -204 85 -23 145 -28 415 -32 536 -10 818 -7 945 10 14 2 50
6 80 10 496 61 883 237 1151 521 30 32 59 63 65 69 30 32 111 159 146 228 130
262 141 561 29 788 -115 231 -327 430 -588 549 -37 17 -75 35 -83 40 -11 6
-15 31 -16 112 -3 206 -24 370 -89 679 -36 171 -120 411 -202 573 -45 91 -115
211 -125 215 -5 2 -8 9 -8 16 0 19 -157 216 -229 286 -119 118 -239 206 -496
364 -88 55 -164 102 -169 107 -4 4 9 25 31 47 35 35 72 78 148 169 l20 25 219
-82 c120 -45 230 -83 244 -85 94 -11 164 103 115 185 -18 31 -59 54 -173 95
-41 15 -88 33 -105 40 -16 7 -59 23 -95 36 -36 12 -67 24 -69 26 -2 1 10 35
28 75 33 74 39 88 63 146 15 37 19 37 108 16 72 -17 319 -70 364 -78 39 -7 94
20 118 58 27 44 19 109 -19 147 -31 32 -43 35 -315 95 -177 38 -178 39 -173
64 3 14 13 69 22 123 12 68 22 98 33 101 8 3 49 8 90 11 41 4 89 8 105 10 17
3 57 7 90 10 111 12 120 13 147 24 39 15 79 79 74 119 -7 63 -60 114 -119 115
-29 0 -118 -8 -192 -18 -16 -2 -58 -7 -92 -9 -34 -3 -65 -6 -70 -7 -25 -4 -28
8 -29 114 0 97 -6 196 -19 294 -15 122 -90 421 -125 498 -5 11 -22 54 -38 95
-16 41 -44 106 -62 143 -18 39 -29 75 -25 85 3 9 17 75 30 147 13 71 26 144
30 160 3 17 8 45 11 64 3 18 8 43 10 55 2 11 6 35 9 51 35 222 41 259 51 355
3 25 7 56 8 70 2 14 7 57 11 95 3 39 8 81 10 95 24 162 23 712 -1 823 -3 12
-9 48 -15 79 -38 227 -153 415 -274 448 -58 16 -163 16 -226 0 -114 -29 -314
-119 -436 -196 -342 -216 -599 -420 -981 -780 l-86 -81 -80 19 c-45 10 -119
25 -166 34 -47 8 -96 17 -110 20 -14 2 -54 8 -90 14 -58 8 -91 12 -220 26 -19
3 -145 7 -279 9 -239 5 -244 5 -260 27 -8 13 -19 28 -24 33 -5 6 -48 66 -95
135 -214 310 -413 552 -647 786 -93 93 -210 200 -260 237 -180 134 -354 201
-455 175z"/>
</g>
</svg>
