<?xml version="1.0" standalone="no"?>
<!DOCTYPE svg PUBLIC "-//W3C//DTD SVG 20010904//EN"
 "http://www.w3.org/TR/2001/REC-SVG-20010904/DTD/svg10.dtd">
<svg version="1.0" xmlns="http://www.w3.org/2000/svg"
 width="512.000000pt" height="512.000000pt" viewBox="0 0 512.000000 512.000000"
 preserveAspectRatio="xMidYMid meet">
<metadata>
Created by potrace 1.14, written by Peter Selinger 2001-2017
</metadata>
<g transform="translate(0.000000,512.000000) scale(0.100000,-0.100000)"
fill="#000000" stroke="none">
<path d="M2865 5102 c-41 -26 -52 -41 -74 -103 -10 -30 -35 -99 -55 -154 -38
-105 -81 -249 -90 -300 -9 -47 -25 -98 -33 -104 -5 -3 -20 -24 -35 -46 -39
-59 -69 -158 -75 -254 -5 -75 -10 -92 -40 -138 -18 -29 -40 -53 -48 -53 -8 0
-57 -13 -107 -30 l-93 -29 -34 32 c-19 18 -40 37 -47 42 -6 6 -24 21 -40 35
-145 125 -293 201 -395 202 -61 0 -134 -38 -171 -90 -31 -45 -64 -145 -73
-222 -6 -55 -7 -279 -1 -335 2 -16 7 -66 10 -109 4 -43 10 -88 12 -100 18 -88
17 -102 -20 -181 -95 -198 -140 -410 -136 -635 8 -448 -5 -576 -86 -830 -101
-320 -131 -559 -110 -879 7 -100 6 -104 -11 -91 -56 43 -98 109 -110 170 -2
14 -6 104 -7 200 -3 153 -6 181 -25 223 -47 107 -129 177 -233 202 -85 19
-157 11 -236 -28 -72 -34 -120 -85 -160 -167 -26 -54 -27 -57 -27 -265 0 -116
4 -228 8 -250 4 -22 10 -56 13 -75 10 -55 60 -186 99 -255 123 -221 338 -386
595 -457 l85 -23 1525 0 1525 1 70 22 c122 37 213 111 263 211 23 49 27 68 27
146 0 79 -4 96 -29 144 -16 30 -52 78 -81 105 -32 31 -51 58 -49 69 16 107 21
352 9 482 -8 87 -10 99 -42 275 -2 14 -24 95 -49 182 -25 86 -47 167 -49 180
-3 12 -7 34 -10 48 -3 14 -7 41 -10 60 -3 19 -10 60 -15 90 -5 30 -7 154 -4
275 7 337 6 352 -12 480 -7 44 -37 172 -52 220 -29 91 -103 249 -144 308 -21
29 -21 38 1 241 8 76 6 336 -4 376 -3 14 -7 39 -10 55 -3 17 -20 59 -38 95
-100 199 -302 171 -600 -83 -40 -34 -75 -65 -78 -70 -3 -5 -31 -1 -63 8 l-56
16 -1 47 c-1 58 -4 88 -19 155 -8 36 -9 64 -3 87 6 20 9 69 7 110 -3 80 -4 85
-22 140 -6 19 -14 109 -16 200 -2 91 -6 174 -9 185 -2 11 -8 47 -12 80 -14
118 -46 160 -127 171 -32 4 -51 0 -73 -14z"/>
<path d="M493 5068 c-5 -7 -29 -68 -52 -135 -24 -67 -50 -128 -60 -135 -9 -8
-65 -36 -124 -63 -59 -26 -110 -52 -113 -57 -3 -5 -3 -19 0 -31 4 -17 33 -35
126 -77 118 -53 120 -55 137 -99 83 -227 88 -236 113 -236 23 0 29 11 75 140
l50 140 112 50 c126 56 145 70 137 102 -5 16 -36 35 -127 75 -94 41 -122 58
-130 78 -5 14 -28 77 -51 140 -33 93 -45 116 -62 118 -11 2 -25 -3 -31 -10z"/>
<path d="M2015 4788 c-30 -16 -45 -39 -45 -69 0 -40 9 -58 39 -73 52 -27 106
1 117 61 5 29 2 39 -18 59 -28 29 -65 37 -93 22z"/>
<path d="M4682 4748 c-5 -7 -22 -47 -36 -88 -40 -113 -41 -114 -124 -150 -91
-39 -102 -47 -102 -70 0 -12 27 -29 89 -58 49 -22 93 -46 97 -53 4 -7 22 -54
40 -104 24 -69 36 -91 51 -93 17 -3 25 11 53 90 18 51 38 99 44 106 11 15 126
72 143 72 13 0 43 34 43 49 0 7 -42 32 -94 56 l-93 44 -33 93 c-33 93 -46 118
-60 118 -4 0 -12 -6 -18 -12z"/>
<path d="M779 3638 c-74 -42 -95 -138 -44 -205 99 -129 296 -24 245 131 -25
78 -129 116 -201 74z"/>
</g>
</svg>
