<?xml version="1.0" standalone="no"?>
<!DOCTYPE svg PUBLIC "-//W3C//DTD SVG 20010904//EN"
 "http://www.w3.org/TR/2001/REC-SVG-20010904/DTD/svg10.dtd">
<svg version="1.0" xmlns="http://www.w3.org/2000/svg"
 width="512.000000pt" height="512.000000pt" viewBox="0 0 512.000000 512.000000"
 preserveAspectRatio="xMidYMid meet">
<metadata>
Created by potrace 1.14, written by Peter Selinger 2001-2017
</metadata>
<g transform="translate(0.000000,512.000000) scale(0.100000,-0.100000)"
fill="#000000" stroke="none">
<path d="M1012 4785 c-134 -42 -231 -192 -266 -410 -2 -16 -7 -48 -11 -70 -14
-92 -19 -346 -10 -490 2 -33 5 -78 6 -100 1 -22 -12 -85 -29 -140 -38 -129
-79 -328 -88 -430 -4 -44 -8 -87 -9 -95 -2 -13 -32 -15 -201 -16 -197 -1 -274
-6 -346 -25 -59 -15 -76 -66 -37 -108 23 -25 11 -24 199 -5 79 8 374 3 384 -7
2 -2 7 -35 11 -74 4 -38 9 -73 11 -76 4 -7 -35 -14 -131 -25 -136 -15 -423
-91 -457 -122 -28 -24 -23 -78 8 -98 28 -19 12 -21 224 36 149 40 371 73 386
57 18 -20 64 -189 70 -257 6 -64 -6 -145 -43 -285 -8 -33 -17 -70 -19 -82 -2
-12 -9 -34 -14 -48 -5 -14 -7 -25 -5 -25 2 0 1 -10 -4 -23 -5 -13 -12 -48 -16
-78 -4 -30 -8 -56 -10 -59 -2 -3 -7 -32 -10 -64 -39 -334 49 -608 266 -824
155 -154 503 -288 853 -326 27 -3 58 -14 70 -24 12 -10 34 -30 50 -44 56 -51
171 -108 242 -121 138 -27 246 25 317 151 25 45 29 45 56 -9 20 -40 79 -98
125 -122 33 -18 58 -22 131 -22 85 0 95 2 164 38 68 35 124 73 176 120 22 20
19 19 180 48 411 72 659 190 826 394 45 54 69 76 92 80 63 13 214 68 297 107
78 37 198 104 210 117 3 4 25 20 49 36 64 43 198 179 252 255 63 90 129 220
148 295 49 187 -83 376 -264 378 -106 2 -199 -57 -305 -192 -103 -130 -177
-213 -262 -289 l-25 -22 -17 87 c-9 49 -36 162 -59 253 -55 218 -57 315 -9
466 l32 102 38 -5 c181 -21 300 -45 497 -103 52 -16 92 -1 101 36 13 52 -12
75 -116 109 -52 17 -98 31 -103 32 -4 1 -20 4 -35 7 -15 4 -38 8 -52 11 -14 3
-47 9 -75 15 -27 5 -66 12 -85 14 -118 14 -141 19 -137 31 3 6 8 42 12 78 4
38 12 67 19 68 6 0 20 2 31 5 26 5 301 5 340 0 17 -2 64 -7 106 -11 71 -6 78
-5 97 15 19 20 21 47 7 87 -10 30 -160 47 -412 47 l-183 0 -1 51 c0 27 -2 59
-4 70 -2 11 -7 43 -10 70 -9 71 -41 212 -77 340 -17 61 -30 121 -30 135 12
287 7 523 -13 660 -20 139 -80 283 -144 348 -160 161 -395 102 -684 -172 -54
-51 -41 -51 -169 8 -141 65 -354 128 -478 142 -30 3 -66 8 -80 10 -37 6 -238
5 -290 -2 -176 -23 -370 -79 -554 -160 l-99 -43 -62 60 c-203 198 -396 281
-543 234z"/>
</g>
</svg>
