<?xml version="1.0" standalone="no"?>
<!DOCTYPE svg PUBLIC "-//W3C//DTD SVG 20010904//EN"
 "http://www.w3.org/TR/2001/REC-SVG-20010904/DTD/svg10.dtd">
<svg version="1.0" xmlns="http://www.w3.org/2000/svg"
 width="405.000000pt" height="405.000000pt" viewBox="0 0 405.000000 405.000000"
 preserveAspectRatio="xMidYMid meet">
<metadata>
Created by potrace 1.14, written by Peter Selinger 2001-2017
</metadata>
<g transform="translate(0.000000,405.000000) scale(0.100000,-0.100000)"
fill="#000000" stroke="none">
<path d="M1074 4016 c-41 -34 -74 -112 -89 -211 -24 -152 -6 -437 40 -655 14
-65 14 -65 -25 -185 -21 -66 -52 -173 -69 -239 -32 -122 -36 -139 -47 -213 -5
-34 -10 -43 -23 -39 -63 19 -129 27 -225 25 -111 -2 -196 -14 -196 -27 0 -4
78 -7 173 -8 119 -1 186 -6 217 -15 44 -15 45 -16 47 -59 1 -25 5 -74 10 -110
4 -36 7 -69 8 -74 0 -6 -31 -15 -68 -22 -37 -7 -92 -24 -123 -38 -66 -30 -144
-85 -144 -101 0 -6 -23 -17 -50 -23 -133 -31 -247 -122 -312 -247 -92 -179
-93 -413 -2 -546 104 -152 317 -123 368 51 8 27 13 69 10 92 -12 113 -7 185
16 226 64 113 217 66 245 -74 22 -111 -5 -222 -107 -433 -86 -180 -99 -222
-104 -326 -3 -76 0 -101 21 -160 28 -79 84 -165 132 -203 18 -15 35 -40 39
-57 33 -154 177 -298 335 -334 28 -7 414 -11 1066 -11 975 0 1024 1 1082 19
152 47 280 184 306 326 11 62 7 164 -10 220 -14 50 -55 100 -102 124 -28 14
-109 13 -152 -3 -33 -12 -35 -11 -69 27 -20 21 -48 45 -63 53 l-28 14 27 53
c23 45 26 63 26 142 -1 108 -29 201 -105 344 -36 68 -49 105 -49 135 0 64 -30
134 -78 181 l-42 42 89 37 c118 49 256 141 326 218 32 36 74 99 98 147 l41 83
51 -7 c69 -9 179 -48 228 -82 67 -45 67 -45 67 -29 0 40 -171 128 -279 142
-28 4 -53 10 -56 13 -2 4 1 27 6 51 6 24 11 76 12 114 l2 70 45 14 c25 7 104
17 175 20 160 9 171 26 17 29 -96 1 -173 -7 -223 -22 -13 -5 -18 5 -23 47 -10
74 -80 344 -120 461 -33 98 -33 99 -19 165 69 328 68 663 -2 806 -34 69 -71
90 -146 84 -94 -8 -259 -100 -423 -236 l-60 -50 -55 20 c-270 94 -682 98 -966
10 l-90 -28 -80 65 c-176 142 -303 211 -405 218 -60 5 -68 3 -96 -21z m-80
-2021 c12 -16 21 -34 21 -40 -3 -22 -18 -46 -24 -38 -17 23 -148 99 -164 95
-14 -4 5 42 22 55 14 12 14 12 -4 6 -18 -6 -18 -5 -6 10 7 9 18 14 24 10 6 -3
7 -1 3 5 -7 12 27 35 38 25 3 -3 6 -2 6 4 0 6 -11 10 -24 9 -13 0 -22 -4 -19
-8 2 -5 -1 -8 -6 -8 -6 0 -11 7 -11 16 0 9 6 14 13 11 8 -3 20 -1 27 3 11 7
23 -8 48 -58 19 -37 44 -80 56 -97z m-181 130 c-3 -9 -8 -14 -10 -11 -3 3 -2
9 2 15 9 16 15 13 8 -4z m23 -34 c-9 -10 -13 -21 -9 -24 3 -4 1 -7 -6 -7 -7 0
-10 -4 -7 -8 2 -4 1 -14 -3 -21 -6 -9 -11 -10 -15 -2 -4 6 -2 11 4 11 6 0 8 5
5 10 -4 6 -12 7 -18 3 -9 -5 -9 -3 0 8 8 10 9 19 3 27 -7 9 -7 9 2 2 14 -12
28 -13 27 -2 -1 4 2 18 6 31 7 20 9 21 17 6 7 -11 5 -22 -6 -34z m-222 -39 c3
-5 -1 -9 -9 -9 -8 0 -12 4 -9 9 3 4 7 8 9 8 2 0 6 -4 9 -8z m632 -1036 c35
-14 82 -29 105 -32 l42 -7 -7 -66 c-3 -36 -6 -78 -6 -93 0 -27 -2 -28 -57 -28
-70 0 -132 -28 -175 -80 -32 -37 -32 -37 -66 -23 -19 8 -52 15 -73 15 -33 0
-40 4 -45 24 -16 63 18 217 85 387 l11 27 61 -49 c34 -28 90 -61 125 -75z"/>
<path d="M855 2049 c-4 -6 -5 -12 -2 -15 2 -3 7 2 10 11 7 17 1 20 -8 4z"/>
</g>
</svg>
